HIERARCHY
ROOT Hips
{
	OFFSET 0.000000 0.000000 0.000000
	CHANNELS 6 Xposition Yposition Zposition Zrotation Yrotation Xrotation 
	JOINT LHipJoint
	{
		OFFSET 0.000000 0.000000 0.000000
		CHANNELS 3 Zrotation Yrotation Xrotation
		JOINT LeftUpLeg
		{
			OFFSET 1.363060 -1.794630 0.839290
			CHANNELS 3 Zrotation Yrotation Xrotation
			JOINT LeftLeg
			{
				OFFSET 2.448110 -6.726130 0.000000
				CHANNELS 3 Zrotation Yrotation Xrotation
				JOINT LeftFoot
				{
					OFFSET 2.562200 -7.039590 0.000000
					CHANNELS 3 Zrotation Yrotation Xrotation
					JOINT LeftToeBase
					{
						OFFSET 0.157640 -0.433110 2.322550
						CHANNELS 3 Zrotation Yrotation Xrotation
						End Site
						{
							OFFSET 0.000000 0.000000 0.000000
						}
					}
				}
			}
		}
	}
	JOINT RHipJoint
	{
		OFFSET 0.000000 0.000000 0.000000
		CHANNELS 3 Zrotation Yrotation Xrotation
		JOINT RightUpLeg
		{
			OFFSET -1.305520 -1.794630 0.839290
			CHANNELS 3 Zrotation Yrotation Xrotation
			JOINT RightLeg
			{
				OFFSET -2.542530 -6.985550 0.000000
				CHANNELS 3 Zrotation Yrotation Xrotation
				JOINT RightFoot
				{
					OFFSET -2.568260 -7.056230 0.000000
					CHANNELS 3 Zrotation Yrotation Xrotation
					JOINT RightToeBase
					{
						OFFSET -0.164730 -0.452590 2.363150
						CHANNELS 3 Zrotation Yrotation Xrotation
						End Site
						{
							OFFSET 0.000000 0.000000 0.000000
						}
					}
				}
			}
		}
	}
	JOINT LowerBack
	{
		OFFSET 0.000000 0.000000 0.000000
		CHANNELS 3 Zrotation Yrotation Xrotation
		JOINT Spine
		{
			OFFSET 0.028270 2.035590 -0.193380
			CHANNELS 3 Zrotation Yrotation Xrotation
			JOINT Spine1
			{
				OFFSET 0.056720 2.048850 -0.042750
				CHANNELS 3 Zrotation Yrotation Xrotation
				JOINT Neck
				{
					OFFSET 0.000000 0.000000 0.000000
					CHANNELS 3 Zrotation Yrotation Xrotation
					JOINT Neck1
					{
						OFFSET -0.054170 1.746240 0.172020
						CHANNELS 3 Zrotation Yrotation Xrotation
						JOINT Head
						{
							OFFSET 0.104070 1.761360 -0.123970
							CHANNELS 3 Zrotation Yrotation Xrotation
							End Site
							{
								OFFSET 0.000000 0.000000 0.000000
							}
						}
					}
				}
				JOINT LeftShoulder
				{
					OFFSET 0.000000 0.000000 0.000000
					CHANNELS 3 Zrotation Yrotation Xrotation
					JOINT LeftArm
					{
						OFFSET 3.362410 1.200890 -0.311210
						CHANNELS 3 Zrotation Yrotation Xrotation
						JOINT LeftForeArm
						{
							OFFSET 4.983000 -0.000000 -0.000000
							CHANNELS 3 Zrotation Yrotation Xrotation
							JOINT LeftHand
							{
								OFFSET 3.483560 -0.000000 -0.000000
								CHANNELS 3 Zrotation Yrotation Xrotation
								JOINT LeftFingerBase
								{
									OFFSET 0.000000 0.000000 0.000000
									CHANNELS 3 Zrotation Yrotation Xrotation
									JOINT LeftHandIndex1
									{
										OFFSET 0.715260 -0.000000 -0.000000
										CHANNELS 3 Zrotation Yrotation Xrotation
										End Site
										{
											OFFSET 0.000000 0.000000 0.000000
										}
									}
								}
								JOINT LThumb
								{
									OFFSET 0.000000 0.000000 0.000000
									CHANNELS 3 Zrotation Yrotation Xrotation
									End Site
									{
										OFFSET 0.000000 0.000000 0.000000
									}
								}
							}
						}
					}
				}
				JOINT RightShoulder
				{
					OFFSET 0.000000 0.000000 0.000000
					CHANNELS 3 Zrotation Yrotation Xrotation
					JOINT RightArm
					{
						OFFSET -3.136600 1.374050 -0.404650
						CHANNELS 3 Zrotation Yrotation Xrotation
						JOINT RightForeArm
						{
							OFFSET -5.241900 -0.000000 -0.000000
							CHANNELS 3 Zrotation Yrotation Xrotation
							JOINT RightHand
							{
								OFFSET -3.444170 -0.000000 -0.000000
								CHANNELS 3 Zrotation Yrotation Xrotation
								JOINT RightFingerBase
								{
									OFFSET 0.000000 0.000000 0.000000
									CHANNELS 3 Zrotation Yrotation Xrotation
									JOINT RightHandIndex1
									{
										OFFSET -0.622530 -0.000000 -0.000000
										CHANNELS 3 Zrotation Yrotation Xrotation
										End Site
										{
											OFFSET 0.000000 0.000000 0.000000
										}
									}
								}
								JOINT RThumb
								{
									OFFSET 0.000000 0.000000 0.000000
									CHANNELS 3 Zrotation Yrotation Xrotation
									End Site
									{
										OFFSET 0.000000 0.000000 0.000000
									}
								}
							}
						}
					}
				}
			}
		}
	}
}
MOTION
Frames: 7
Frame Time: 0.008333
-7.931624 18.128801 5.751197 -1.018240 -12.571908 4.521921 -4.391082 5.270230 6.001131 -12.474666 -10.959449 -8.543079 0.005300 5.959774 20.663673 -2.743092 11.069378 -8.384779 0.132400 -2.345800 -6.462200 -0.915356 -6.217073 4.068447 19.394226 26.610832 -2.054610 -1.533668 -6.174752 23.597407 2.250979 -8.776679 -6.167270 -0.037400 1.248600 -3.433000 3.402258 0.442521 -3.830292 -5.409483 -0.331367 10.632866 2.291543 0.242927 -7.119866 -12.003060 -6.010862 -11.587943 9.363762 -8.130704 13.964727 3.928200 -3.796200 5.375100 -7.501137 -0.993807 -0.863709 -81.065121 4.210841 7.692631 12.896766 -19.803823 -2.398133 -1.022761 -1.277829 13.298269 21.805981 21.793246 9.299200 -7.125000 0.000000 0.000000 -7.076500 54.800700 -1.709900 10.755182 0.684583 -1.866297 75.917688 -4.365900 17.062446 -13.478366 16.492623 -2.407523 1.690678 -0.154923 18.985562 -26.111446 2.282698 -0.952800 7.125000 0.000000 0.000000 -0.912400 -27.933500 -0.378700 
-7.928118 18.128606 5.740776 -0.991021 -12.437777 4.469433 -4.391147 5.270608 6.012179 -12.465259 -10.848002 -8.572620 0.004578 5.951059 20.632741 -2.687054 10.837904 -7.994001 0.125500 -2.283800 -6.290700 -0.919187 -6.215060 4.074958 19.378457 26.523720 -2.078832 -1.538679 -6.183558 23.623639 2.266241 -8.826486 -6.191329 -0.038400 1.264200 -3.476200 3.424571 0.458954 -3.810409 -5.467728 -0.304010 10.743514 2.294989 0.253517 -7.139774 -11.904365 -5.946418 -11.758580 9.236001 -8.038352 14.231128 3.891000 -3.750800 5.441600 -7.502501 -0.996261 -0.861410 -81.020538 4.105792 7.683098 12.854697 -19.741396 -2.382033 -1.027546 -1.261547 13.211079 21.967977 21.474632 9.251700 -7.125000 0.000000 0.000000 -6.773800 54.486900 -1.584400 10.769637 0.681405 -1.862326 75.914132 -4.339839 16.590890 -13.321160 16.250675 -2.334400 1.689084 -0.166002 19.264114 -25.944702 2.140599 -0.875000 7.125000 0.000000 0.000000 -0.786600 -28.090200 -0.323600 
-7.921690 18.127438 5.734932 -0.965573 -12.191447 4.291527 -4.391340 5.294167 6.029604 -12.454996 -11.090114 -8.364259 -0.004605 5.940466 20.615434 -2.602878 10.608462 -8.202672 0.093900 -1.976500 -5.440700 -0.922692 -6.217031 4.095612 19.397275 26.298443 -1.944954 -1.534340 -6.180615 23.609774 2.275763 -8.863573 -6.242984 -0.036300 1.229600 -3.380600 3.523275 0.449062 -3.747691 -5.527078 -0.302048 10.926885 2.248914 0.244911 -7.185879 -11.835021 -5.822171 -11.915829 9.127906 -7.870406 14.569756 3.868000 -3.668400 5.516100 -7.490195 -0.992685 -0.866723 -80.988848 4.109517 7.929620 12.902178 -19.822160 -2.402429 -1.036640 -1.271547 12.941102 22.247139 21.647214 9.450800 -7.125000 0.000000 0.000000 -6.534500 54.732200 -1.567200 10.772287 0.664400 -1.864867 75.873609 -4.392213 16.193120 -13.163928 16.026369 -2.274857 1.703868 -0.296582 19.585665 -26.385624 3.104900 -1.462700 7.125000 0.000000 0.000000 -1.140400 -26.871700 -0.501900 
-7.918086 18.129093 5.726264 -0.924649 -11.976714 4.196827 -4.392903 5.302740 6.028155 -12.460566 -11.216155 -8.280022 -0.008741 5.931790 20.590760 -2.564378 10.468971 -8.072731 0.084000 -1.869400 -5.144800 -0.923437 -6.213610 4.101465 19.382177 26.143413 -1.906310 -1.534757 -6.185079 23.614855 2.302895 -8.950316 -6.270583 -0.035400 1.215300 -3.341400 3.548997 0.449529 -3.648850 -5.550567 -0.291127 10.933126 2.237878 0.248161 -7.244974 -11.854656 -5.679944 -11.851108 9.081356 -7.684500 14.742128 3.877900 -3.581800 5.525000 -7.485364 -0.982341 -0.868138 -80.967007 4.177753 8.074683 12.982340 -19.948955 -2.436007 -1.032382 -1.282698 12.814436 22.243097 21.803785 9.510100 -7.125000 0.000000 0.000000 -6.602400 54.902900 -1.611000 10.775057 0.647439 -1.865975 75.800596 -4.513250 16.026504 -13.064557 15.885448 -2.228694 1.721535 -0.287820 19.669647 -26.426286 2.846759 -1.320000 7.125000 0.000000 0.000000 -1.190000 -27.179900 -0.515100 
-7.918378 18.131723 5.713212 -0.904909 -11.777792 4.178020 -4.392133 5.296724 6.018170 -12.419243 -11.141150 -8.356144 -0.007272 5.929891 20.566018 -2.536577 10.310482 -7.573598 0.094400 -1.981700 -5.455000 -0.924590 -6.205787 4.093599 19.394241 26.076538 -1.926857 -1.535240 -6.185213 23.613670 2.340207 -9.070038 -6.322974 -0.032800 1.169600 -3.215600 3.544045 0.459964 -3.541620 -5.580145 -0.271351 10.820198 2.258352 0.259565 -7.302631 -11.790414 -5.538667 -11.600898 8.959421 -7.500762 14.726510 3.865600 -3.503300 5.463400 -7.491994 -0.965468 -0.865991 -80.907980 4.226098 8.044074 13.029356 -20.020116 -2.456317 -1.012013 -1.287000 12.873024 21.856036 21.788064 9.319900 -7.125000 0.000000 0.000000 -7.024700 54.807000 -1.698400 10.779168 0.635563 -1.864093 75.779481 -4.669586 15.806230 -12.985101 15.784545 -2.207729 1.717351 -0.410687 19.748099 -26.737032 3.997226 -2.020500 7.125000 0.000000 0.000000 -1.410300 -25.740900 -0.658000 
-7.920132 18.130652 5.698992 -0.924077 -11.574019 4.143153 -4.389319 5.296267 6.017434 -12.309927 -11.180797 -8.410517 -0.009198 5.935632 20.574944 -2.435787 9.993505 -7.539802 0.082900 -1.856700 -5.109900 -0.928741 -6.205031 4.095564 19.480310 26.074279 -1.898363 -1.537787 -6.182755 23.619556 2.379426 -9.199258 -6.423429 -0.028100 1.081600 -2.973500 3.595066 0.486851 -3.532639 -5.655672 -0.232150 10.869989 2.261912 0.273943 -7.296659 -11.617657 -5.391362 -11.490010 8.787684 -7.304550 14.768455 3.827400 -3.415300 5.432000 -7.499811 -0.967962 -0.864052 -80.766197 4.055458 7.952874 12.981571 -19.946468 -2.438048 -0.994365 -1.298071 13.041366 21.335624 21.998568 9.154800 -7.125000 0.000000 0.000000 -7.675500 54.926400 -1.879400 10.793980 0.643384 -1.862709 75.817953 -4.681941 15.426116 -12.852473 15.570999 -2.145343 1.708531 -0.378586 20.034037 -26.369196 3.468017 -1.690400 7.125000 0.000000 0.000000 -1.136800 -26.389200 -0.513200 
-7.921398 18.130554 5.684188 -1.012387 -11.351152 4.161549 -4.376558 5.296988 6.018314 -12.136275 -11.210980 -8.517163 -0.011789 5.938105 20.565743 -2.359059 9.728966 -7.370041 0.077400 -1.794300 -4.937500 -0.925515 -6.203535 4.103245 19.623730 26.094977 -1.923420 -1.546997 -6.185873 23.654679 2.420777 -9.335298 -6.525940 -0.024500 1.010700 -2.778300 3.686608 0.497155 -3.596529 -5.633703 -0.217755 11.004442 2.216075 0.274713 -7.263645 -11.552298 -5.222095 -11.683121 8.713860 -7.075202 15.108465 3.819500 -3.300200 5.509500 -7.505132 -0.983520 -0.859393 -80.664626 3.812648 7.829900 12.957664 -19.910828 -2.428815 -0.991383 -1.308470 13.203082 21.114197 22.291144 9.159000 -7.125000 0.000000 0.000000 -8.035800 55.193600 -2.020800 10.797502 0.652019 -1.856318 75.827108 -4.609471 15.203610 -12.735015 15.386598 -2.103969 1.721191 -0.507480 20.144540 -26.825906 4.497948 -2.344600 7.125000 0.000000 0.000000 -1.479200 -25.079500 -0.713000 
